<mxfile host="app.diagrams.net" modified="2024-12-31T20:46:53.893Z" agent="Mozilla/5.0 (X11; Ubuntu; Linux x86_64; rv:133.0) Gecko/20100101 Firefox/133.0" etag="SfGn1E28YCT-plBIS0LC" version="24.5.4" type="device">
  <diagram name="Page-1" id="Mk-cNSCtjNlqDGekh7mS">
    <mxGraphModel dx="1050" dy="1645" grid="1" gridSize="10" guides="1" tooltips="1" connect="1" arrows="1" fold="1" page="1" pageScale="1" pageWidth="850" pageHeight="1100" math="0" shadow="0">
      <root>
        <mxCell id="0" />
        <mxCell id="1" parent="0" />
        <mxCell id="P-lkFoOBwEQCPzclvfJX-1" value="&lt;b&gt;Core PDF extracting logic&lt;/b&gt;" style="whiteSpace=wrap;html=1;aspect=fixed;" vertex="1" parent="1">
          <mxGeometry x="520" y="40" width="160" height="160" as="geometry" />
        </mxCell>
        <mxCell id="P-lkFoOBwEQCPzclvfJX-2" value="Command-Line Interface" style="whiteSpace=wrap;html=1;aspect=fixed;" vertex="1" parent="1">
          <mxGeometry x="270" y="20" width="80" height="80" as="geometry" />
        </mxCell>
        <mxCell id="P-lkFoOBwEQCPzclvfJX-3" value="Additional Interface" style="whiteSpace=wrap;html=1;aspect=fixed;dashed=1;" vertex="1" parent="1">
          <mxGeometry x="270" y="140" width="80" height="80" as="geometry" />
        </mxCell>
        <mxCell id="P-lkFoOBwEQCPzclvfJX-8" style="edgeStyle=orthogonalEdgeStyle;rounded=0;orthogonalLoop=1;jettySize=auto;html=1;entryX=0;entryY=0.5;entryDx=0;entryDy=0;" edge="1" parent="1" source="P-lkFoOBwEQCPzclvfJX-5" target="P-lkFoOBwEQCPzclvfJX-1">
          <mxGeometry relative="1" as="geometry" />
        </mxCell>
        <mxCell id="P-lkFoOBwEQCPzclvfJX-5" value="&lt;b&gt;Interfaces&lt;/b&gt;" style="rounded=0;whiteSpace=wrap;html=1;fillColor=none;labelPosition=center;verticalLabelPosition=top;align=center;verticalAlign=bottom;" vertex="1" parent="1">
          <mxGeometry x="220" width="180" height="240" as="geometry" />
        </mxCell>
        <mxCell id="P-lkFoOBwEQCPzclvfJX-7" style="edgeStyle=orthogonalEdgeStyle;rounded=0;orthogonalLoop=1;jettySize=auto;html=1;entryX=0;entryY=0.5;entryDx=0;entryDy=0;" edge="1" parent="1" source="P-lkFoOBwEQCPzclvfJX-6" target="P-lkFoOBwEQCPzclvfJX-5">
          <mxGeometry relative="1" as="geometry" />
        </mxCell>
        <mxCell id="P-lkFoOBwEQCPzclvfJX-6" value="User" style="shape=umlActor;verticalLabelPosition=bottom;verticalAlign=top;html=1;outlineConnect=0;" vertex="1" parent="1">
          <mxGeometry x="60" y="80" width="40" height="80" as="geometry" />
        </mxCell>
      </root>
    </mxGraphModel>
  </diagram>
</mxfile>
